<?xml version="1.0" encoding="UTF-8"?>
<svg id="Calque_2" data-name="Calque 2" xmlns="http://www.w3.org/2000/svg" viewBox="0 0 365.82 651.46">
  <defs>
    <style>
      .cls-1 {
        fill: #fff;
      }
    </style>
  </defs>
  <g id="lo_-_copie_4" data-name="lo - copie 4">
    <path class="cls-1" d="M248.28,495.1v77.49h-31.26v-222.3h49.3c31.86,0,51.3,24.14,51.3,67.01v11.11c0,42.87-21.24,66.69-50.7,66.69h-18.64Zm0-101.62v58.43h15.63c14.63,0,21.64-10.16,21.64-25.72v-6.67c0-15.88-7.01-26.04-21.64-26.04h-15.63Z"/>
    <path class="cls-1" d="M85.05,142.74c0,13.13,4.2,17.4,16,24.95l14.4,9.19c28.2,18.05,36.41,34.79,36.41,70.24,0,43.98-15.4,68.27-49.01,68.27-30.2,0-49.61-20.35-53.21-71.55h30.8c2.8,20.02,7.8,26.91,22.2,26.91,12.6,0,17.2-6.56,17.2-21.01,0-15.75-4.2-20.35-18.6-29.21l-13-7.88c-25.4-15.43-35.21-32.17-35.21-68.27,0-38.07,15.2-65.32,47.01-65.32s47.81,27.9,48.81,71.55h-30.81c-1.2-17.72-5.6-26.91-18-26.91-11,0-15,7.55-15,19.04Z"/>
    <path class="cls-1" d="M286.82,79.07h-17.65l-53.4,236.33h36.41l8.39-41.52h26.25v-45.91h-17.2l17.2-84.75V79.07Z"/>
    <path class="cls-1" d="M81.65,410.63l16.64,79.72h-16.64s0,43.19,0,43.19h25.39s8.11,39.05,8.11,39.05h35.21s-51.64-222.3-51.64-222.3h-17.07s0,60.34,0,60.34Z"/>
    <path class="cls-1" d="M0,0V651.46H365.82V0H0ZM350.63,636.78H15.19V14.96H350.63V636.78Z"/>
  </g>
</svg>